#!OML:ASF Y:\EmotionMaleHayes\Project 1\Capture day 1\Session 1\Male1.ASF
:FULLY-SPECIFIED
:DEGREES
2523
root -28.5073 16.4447 11.2503 1257.07 6.88781 547.308
lowerback 9.46739 2.66348 3.8834
upperback 7.64511 4.74103 0.471719
thorax 2.92819 2.9207 -1.96756
lowerneck -16.369 -3.56583 -2.26335
upperneck 28.9313 -11.509 12.6008
head 13.477 -4.62807 3.18454
rclavicle -6.75868e-015 7.95139e-016
rhumerus -13.0092 30.8012 -92.4562
rradius 51.2452
rwrist -5.48229
rhand -10.8706 -29.498
rfingers 7.12502
rthumb 15.1451 -58.9238
lclavicle -6.75868e-015 7.95139e-016
lhumerus -23.8207 1.10301 76.0687
lradius 23.9541
lwrist -3.42616
lhand -23.1367 -27.2804
lfingers 7.12502
lthumb 3.3111 2.67365
rfemur 19.9356 0.380314 30.8828
rtibia 9.15663
rfoot -26.1357 7.37738
rtoes 23.3406
lfemur -18.3914 -9.82938 3.68522
ltibia 8.48193
lfoot -7.36239 0.667851
ltoes -22.0624
2524
root -28.547 16.4175 11.1242 1257.16 7.56159 547.602
lowerback 9.39238 2.72794 3.83969
upperback 7.63544 4.81085 0.47808
thorax 2.9595 2.9498 -1.93587
lowerneck -16.3751 -3.53189 -2.85691
upperneck 29.0297 -11.4707 12.9855
head 13.5818 -4.63993 3.4491
rclavicle -1.74931e-014 -9.54166e-015
rhumerus -13.6271 31.1639 -92.8826
rradius 51.6953
rwrist -7.99728
rhand -14.1506 -31.2969
rfingers 7.12502
rthumb 11.9839 -60.9339
lclavicle -1.74931e-014 -9.54166e-015
lhumerus -23.8345 0.280286 76.2448
lradius 23.6498
lwrist -4.42977
lhand -25.9387 -26.7822
lfingers 7.12502
lthumb 0.604977 3.19669
rfemur 20.1779 0.194823 30.7101
rtibia 9.59426
rfoot -26.8216 7.61015
rtoes 20.6795
lfemur -18.3637 -9.73541 3.85172
ltibia 8.66819
lfoot -6.99004 0.425738
ltoes -23.8169
2525
root -28.5848 16.3845 10.9956 1257.35 8.23431 547.66
lowerback 9.15155 2.83705 3.52832
upperback 7.60475 4.90546 0.399882
thorax 3.04543 2.97737 -1.83384
lowerneck -16.3325 -3.57883 -1.94804
upperneck 29.0847 -11.6395 12.3541
head 13.5097 -4.69695 3.00817
rclavicle 2.0276e-014 1.90833e-014
rhumerus -13.7549 29.1912 -93.0652
rradius 50.9761
rwrist -5.37346
rhand -11.4917 -28.7248
rfingers 7.12502
rthumb 14.5468 -58.1947
lclavicle 2.0276e-014 1.90833e-014
lhumerus -23.6146 0.528186 76.016
lradius 23.498
lwrist -4.54363
lhand -26.0879 -26.6219
lfingers 7.12502
lthumb 0.460832 3.35737
rfemur 20.7657 2.13694 31.5791
rtibia 9.32897
rfoot -27.0621 6.49153
rtoes 22.298
lfemur -18.456 -9.75621 3.7804
ltibia 9.09494
lfoot -6.09655 0.0752324
ltoes -24.648
2526
root -28.5977 16.1713 10.8716 1262.44 7.79422 547.955
lowerback 3.38264 2.97232 3.10426
upperback 6.3955 4.48731 0.331125
thorax 4.93248 2.58796 -1.31786
lowerneck -16.4776 -3.38999 -3.76952
upperneck 29.4023 -11.5828 13.9578
head 13.9188 -4.71346 3.98411
rclavicle -2.26615e-014 8.74653e-015
rhumerus -14.1518 29.3335 -93.0781
rradius 51.1225
rwrist -5.56838
rhand -11.4398 -29.2561
rfingers 7.12502
rthumb 14.5968 -58.7225
lclavicle -2.26615e-014 8.74653e-015
lhumerus -23.2065 1.88318 75.3839
lradius 23.7135
lwrist -3.06387
lhand -22.9632 -26.4935
lfingers 7.12502
lthumb 3.47863 3.45786
rfemur 15.7725 3.36264 32.1591
rtibia 9.98319
rfoot -27.5479 5.64053
rtoes 22.6332
lfemur -25.8548 -7.36374 5.43688
ltibia 12.2361
lfoot -4.44949 -1.50692
ltoes -22.8114
2527
root -28.6402 16.1504 10.7468 1262.2 8.25663 548.01
lowerback 3.72112 2.9251 2.8849
upperback 6.46747 4.45135 0.256608
thorax 4.80368 2.56841 -1.29355
lowerneck -16.4444 -3.41937 -3.26251
upperneck 29.3598 -11.7025 13.6788
head 13.855 -4.75144 3.75486
rclavicle 2.68359e-014 9.54166e-015
rhumerus -14.5232 29.1486 -93.2428
rradius 51.0218
rwrist -5.84063
rhand -11.7178 -29.7952
rfingers 7.12502
rthumb 14.3289 -59.2807
lclavicle 2.68359e-014 9.54166e-015
lhumerus -22.9683 2.10391 75.146
lradius 23.5476
lwrist -3.31936
lhand -23.1479 -26.2218
lfingers 7.12502
lthumb 3.30025 3.73242
rfemur 16.0225 3.11625 31.7552
rtibia 10.8963
rfoot -28.0857 6.21234
rtoes 22.4856
lfemur -25.7121 -8.03051 5.33228
ltibia 13.5317
lfoot -2.67551 -2.37139
ltoes -17.8864
2528
root -28.6752 16.1211 10.6242 1262.26 8.79101 548.084
lowerback 3.76264 2.96049 2.53118
upperback 6.44961 4.49282 0.246529
thorax 4.73555 2.56998 -1.11227
lowerneck -16.412 -3.45684 -3.37676
upperneck 29.3481 -11.7371 13.6876
head 13.8536 -4.78443 3.77151
rclavicle -1.76918e-014 0
rhumerus -14.9995 28.3889 -93.4239
rradius 50.7505
rwrist -5.63013
rhand -12.7162 -30.5833
rfingers 7.12502
rthumb 13.3668 -60.1345
lclavicle -1.76918e-014 0
lhumerus -22.6377 2.71501 74.9577
lradius 23.1824
lwrist -3.71014
lhand -22.9147 -26.356
lfingers 7.12502
lthumb 3.52548 3.59459
rfemur 16.6368 4.75945 32.5256
rtibia 10.7982
rfoot -28.4569 4.65319
rtoes 21.3676
lfemur -26.0657 -8.49765 5.38126
ltibia 15.3444
lfoot -1.07518 -3.2087
ltoes -12.166
2529
root -28.7125 16.0988 10.5006 1262.27 9.25428 547.89
lowerback 3.82134 2.97864 1.88378
upperback 6.43771 4.5109 0.179595
thorax 4.64435 2.5482 -0.828798
lowerneck -16.425 -6.69673 -2.51977
upperneck 30.3691 -10.7466 12.3695
head 14.0324 -2.45687 3.77184
rclavicle -1.03368e-014 -6.36111e-015
rhumerus -15.5114 27.3881 -93.5729
rradius 50.3212
rwrist -5.33364
rhand -13.6672 -30.6718
rfingers 7.12502
rthumb 12.45 -60.281
lclavicle -1.03368e-014 -6.36111e-015
lhumerus -22.301 3.47532 74.7605
lradius 22.7435
lwrist -4.30692
lhand -22.8675 -26.8214
lfingers 7.12502
lthumb 3.57109 3.12841
rfemur 17.1305 6.38478 32.9984
rtibia 11.0727
rfoot -28.9978 3.07729
rtoes 20.5423
lfemur -26.4678 -9.46161 5.13929
ltibia 17.1007
lfoot -1.35459 -3.25217
ltoes -12.2809
2530
root -28.7492 16.0815 10.3786 1262.34 9.69429 547.665
lowerback 3.89183 3.04825 1.31986
upperback 6.3668 4.59756 -0.0383018
thorax 4.50631 2.56633 -0.749606
lowerneck -16.242 -6.77488 -2.40359
upperneck 30.3257 -10.9331 12.5856
head 14.0055 -2.49256 3.81119
rclavicle 1.80894e-014 1.43125e-014
rhumerus -16.0389 26.2773 -93.9264
rradius 49.8207
rwrist -5.37272
rhand -12.5337 -29.5338
rfingers 7.12502
rthumb 13.5427 -59.0734
lclavicle 1.80894e-014 1.43125e-014
lhumerus -21.9925 3.39553 74.577
lradius 22.2185
lwrist -5.43175
lhand -24.1915 -27.0763
lfingers 7.12502
lthumb 2.29238 2.89111
rfemur 17.4867 7.55751 33.149
rtibia 11.2541
rfoot -29.2177 2.01084
rtoes 19.8363
lfemur -26.9516 -10.6066 4.91636
ltibia 18.6209
lfoot -1.26693 -2.67956
ltoes -9.01247
2531
root -28.7911 16.0653 10.2536 1262.35 10.1293 547.339
lowerback 3.99201 3.11265 0.735436
upperback 6.3255 4.68376 -0.286941
thorax 4.38366 2.5881 -0.691297
lowerneck -16.1442 -6.8595 -2.071
upperneck 30.2569 -11.1317 12.5228
head 13.9485 -2.55375 3.68991
rclavicle 1.63003e-014 1.66979e-014
rhumerus -16.5348 25.2731 -94.2156
rradius 49.2158
rwrist -5.45691
rhand -12.953 -29.4947
rfingers 7.12502
rthumb 13.1385 -59.0608
lclavicle 1.63003e-014 1.66979e-014
lhumerus -21.4812 3.89049 74.2503
lradius 21.9715
lwrist -5.34423
lhand -22.6708 -26.5122
lfingers 7.12502
lthumb 3.76101 3.43439
rfemur 17.4742 7.83389 32.6934
rtibia 12.2641
rfoot -29.9741 1.04299
rtoes 15.3586
lfemur -27.3403 -11.6429 4.49095
ltibia 19.9496
lfoot -1.2819 -1.65637
ltoes -8.60264
2532
root -28.8368 16.0493 10.1244 1262.27 10.5162 546.881
lowerback 4.07599 3.12575 -0.00251876
upperback 6.36925 4.70893 -0.481585
thorax 4.34176 2.57694 -0.48785
lowerneck -16.3263 -6.95974 -2.53226
upperneck 30.5173 -11.2917 12.9604
head 14.1936 -2.58556 3.93914
rclavicle 4.17448e-014 -2.54444e-014
rhumerus -17.0302 24.5978 -94.3124
rradius 48.5348
rwrist -5.49408
rhand -13.7965 -29.6115
rfingers 7.12502
rthumb 12.3253 -59.2282
lclavicle 4.17448e-014 -2.54444e-014
lhumerus -20.9664 4.6112 74.1276
lradius 21.4746
lwrist -6.23464
lhand -22.13 -26.6532
lfingers 7.12502
lthumb 4.28326 3.2835
rfemur 17.7373 8.33418 32.149
rtibia 12.9756
rfoot -30.5316 0.719244
rtoes 14.9857
lfemur -27.6293 -12.4526 3.77611
ltibia 21.2391
lfoot -1.40868 -0.357372
ltoes -11.4281
2533
root -28.8788 16.0324 9.99901 1262.24 10.9924 546.383
lowerback 4.12312 3.23739 -0.80814
upperback 6.39885 4.86667 -0.707388
thorax 4.30479 2.6301 -0.277653
lowerneck -16.4626 -7.11836 -2.85134
upperneck 30.6738 -11.5763 13.4318
head 14.396 -2.65443 4.15379
rclavicle 9.54166e-015 1.19271e-014
rhumerus -17.5903 23.2878 -94.3872
rradius 47.8576
rwrist -5.12257
rhand -14.0763 -29.7444
rfingers 7.12502
rthumb 12.0555 -59.3772
lclavicle 9.54166e-015 1.19271e-014
lhumerus -20.3296 5.09069 74.108
lradius 20.856
lwrist -7.31829
lhand -21.9422 -26.8418
lfingers 7.12502
lthumb 4.46457 3.09114
rfemur 17.9961 9.35004 31.8683
rtibia 13.6715
rfoot -30.8248 0.226361
rtoes 16.1936
lfemur -27.9722 -12.3265 2.89698
ltibia 22.6901
lfoot -1.5306 0.480207
ltoes -14.189
2534
root -28.9189 16.017 9.8784 1262.23 11.5868 545.919
lowerback 4.20732 3.39073 -1.53372
upperback 6.40038 5.08232 -0.989601
thorax 4.22766 2.71838 -0.174624
lowerneck -16.356 -7.22295 -2.10227
upperneck 30.327 -11.8188 12.9133
head 14.1417 -2.78632 3.73583
rclavicle -3.26007e-014 6.67916e-014
rhumerus -18.1388 21.3702 -94.5102
rradius 47.2607
rwrist -4.54537
rhand -13.3034 -29.3294
rfingers 7.12502
rthumb 12.8007 -58.917
lclavicle -3.26007e-014 6.67916e-014
lhumerus -19.6629 5.44066 74.0335
lradius 20.227
lwrist -8.52268
lhand -21.8309 -26.9291
lfingers 7.12502
lthumb 4.57207 3.0016
rfemur 18.0833 9.96677 31.4151
rtibia 14.3381
rfoot -30.8378 -0.782978
rtoes 12.9835
lfemur -28.3506 -11.1746 1.91232
ltibia 24.3689
lfoot -1.89184 0.27744
ltoes -17.4536
2535
root -28.9624 16.0047 9.75297 1262.22 12.3142 545.46
lowerback 4.16437 3.47815 -2.29139
upperback 6.46557 5.21856 -1.23378
thorax 4.28195 2.76521 -0.00285385
lowerneck -16.4345 -7.21819 -2.4636
upperneck 30.3497 -11.8378 13.3099
head 14.2362 -2.7793 3.96153
rclavicle -4.53229e-014 4.85035e-014
rhumerus -18.6535 19.7852 -94.6258
rradius 46.6095
rwrist -3.78209
rhand -13.161 -28.867
rfingers 7.12502
rthumb 12.938 -58.4459
lclavicle -4.53229e-014 4.85035e-014
lhumerus -19.1095 6.07039 73.9385
lradius 19.6536
lwrist -10.1076
lhand -22.0626 -27.0519
lfingers 7.12502
lthumb 4.34828 2.88347
rfemur 18.0809 10.7803 30.9237
rtibia 15.0738
rfoot -30.7813 -1.26431
rtoes 11.9018
lfemur -28.5396 -10.0265 0.905424
ltibia 25.8804
lfoot -2.56599 -0.0585595
ltoes -20.0786
